<svg id="Layer_1" data-name="Layer 1" xmlns="http://www.w3.org/2000/svg" viewBox="0 0 424.14 201.56"><title>IMGloop</title><path d="M250.83,228.6c3.56-3.85,6.74-7.46,10.09-10.9,17.05-17.47,35.78-32.73,58-43.27a101.29,101.29,0,0,1,53.19-9.89c40.61,3.66,74.31,30.11,86.43,67.48,13.29,41,4,77.09-27,107-15.65,15.11-35,23.3-56.61,25.89-20.85,2.48-40.41-1.95-59-11.14C292,342,273,324.29,256.21,304c-.73-.87-1.47-1.73-2.52-3-3.14,3.41-6.09,6.71-9.15,9.9-17.45,18.24-36.55,34.36-59.75,44.84-19.91,9-40.7,12.5-62.4,7.89-39.86-8.47-66.44-32.33-78-71.1C30.06,244.28,54,193.94,99.77,173.15a97.87,97.87,0,0,1,49.63-8.58c21.53,1.86,40.75,10.3,58.32,22.7,15.06,10.62,28.11,23.36,39.86,37.49C248.53,225.9,249.5,227,250.83,228.6Zm23.57,34.76C286,280,298.47,294.83,314,306.85c13.25,10.26,27.56,18,44.76,19.45,14.59,1.21,27.94-2.17,39.67-10.61,20.51-14.74,29.43-34.89,26.09-60.1A57.12,57.12,0,0,0,405.83,220c-20.38-18.52-47.16-21.83-72-9.77-15.06,7.31-27.48,18-38.91,29.86C287.76,247.56,281.23,255.58,274.4,263.36ZM140.9,202.73c-5.19.83-10.49,1.22-15.54,2.56-37.5,9.91-58,52.26-38.93,88.1,11.74,22.05,30.89,33.07,55.85,33.2,12.64.06,24.34-4.18,35.13-10.64,20.66-12.38,36.79-29.6,51.11-48.67a3.8,3.8,0,0,0-.24-3.48c-11.29-16.23-24.19-31-40.16-42.84C174.13,210.59,158.9,203.31,140.9,202.73Z" transform="translate(-40.27 -164.13)"/></svg>